<svg xmlns="http://www.w3.org/2000/svg" viewBox="0 0 155.62 221.28"><defs><style>.cls-1{fill:#231f20;}.cls-2{fill:#00858f;}</style></defs><title>ArtistLocationIcon</title><g id="Layer_2" data-name="Layer 2"><g id="Layer_1-2" data-name="Layer 1"><g id="Layer_1-2-2" data-name="Layer 1-2"><path class="cls-1" d="M151.2,103.23l-67.62,114a8.25,8.25,0,0,1-14.27-.12l-65-114a8.25,8.25,0,0,1,7.17-12.34H144.1a8.25,8.25,0,0,1,7.1,12.46Z"/><circle class="cls-1" cx="77.81" cy="77.81" r="77.81"/><circle class="cls-2" cx="77.81" cy="77.81" r="50.58"/><g id="Layer_2-2" data-name="Layer 2"><g id="Layer_1-2-3" data-name="Layer 1-2"><g id="Layer_1-3" data-name="Layer 1-3"><g id="_1213247584" data-name=" 1213247584"><ellipse class="cls-1" cx="78" cy="58.04" rx="19.44" ry="21.72"/><polygon class="cls-1" points="58.95 78.62 59.71 78.62 60.09 78.62 60.47 79 60.85 79 61.23 79.38 61.61 79.77 61.99 80.15 62.76 80.91 63.14 81.67 63.52 82.43 63.9 83.58 64.66 84.34 65.04 85.48 65.42 86.63 65.81 87.77 66.19 88.91 66.57 90.44 66.95 91.58 67.33 92.72 67.71 94.25 68.09 95.39 68.47 96.91 68.85 98.06 69.24 99.2 69.62 100.34 70.38 101.49 70.76 102.63 71.52 103.77 72.67 104.92 74.19 106.06 75.71 106.44 77.62 106.82 79.91 106.44 81.43 105.68 82.95 104.92 84.1 103.77 84.86 102.63 85.24 101.49 86 99.96 86.38 98.82 86.77 97.68 87.15 96.53 87.53 95.39 87.91 93.86 88.29 92.72 88.67 91.58 89.05 90.06 89.43 88.91 89.81 87.77 90.19 86.63 90.58 85.48 91.34 84.34 91.72 83.19 92.1 82.43 92.86 81.67 93.24 80.91 93.63 80.15 94.39 79.77 94.77 79.38 95.53 79 95.91 79 96.29 78.62 97.06 78.62 98.2 78.62 98.58 78.62 99.34 78.62 99.72 78.62 100.48 79 100.87 79 101.25 79 102.01 79.38 102.39 79.38 102.77 79.77 103.15 79.77 103.53 80.15 103.92 80.15 104.3 80.53 104.68 80.91 105.06 81.29 105.44 81.29 105.82 81.67 106.2 82.05 106.2 82.43 106.58 82.81 106.96 83.19 106.96 83.58 107.34 83.58 107.34 83.96 107.72 84.34 107.72 84.72 107.72 84.72 107.72 85.1 108.11 85.1 108.11 85.48 108.11 85.48 108.11 85.86 108.11 107.2 108.11 107.97 108.11 108.35 107.72 108.73 107.72 109.11 107.72 109.11 107.34 109.49 106.96 109.87 106.96 110.25 106.58 110.25 106.2 110.63 105.82 111.01 105.44 111.01 105.06 111.01 104.68 111.4 104.3 111.4 103.92 111.4 51.7 111.4 51.32 111.4 50.94 111.4 50.56 111.01 50.18 111.01 49.8 111.01 49.42 110.63 49.04 110.25 48.66 110.25 48.28 109.87 48.28 109.49 47.9 109.11 47.9 109.11 47.9 108.73 47.51 108.35 47.51 107.97 47.51 107.2 47.51 85.86 47.51 85.48 47.51 85.48 47.51 85.48 47.51 85.1 47.51 85.1 47.9 84.72 47.9 84.72 47.9 84.34 48.28 83.96 48.66 83.58 48.66 83.19 49.04 82.81 49.42 82.81 49.8 82.43 49.8 82.05 50.18 81.67 50.56 81.29 51.32 80.91 51.7 80.91 52.09 80.53 52.47 80.15 53.23 79.77 53.61 79.77 53.99 79.38 54.75 79.38 55.13 79 55.9 79 56.28 79 57.04 78.62 57.8 78.62 58.18 78.62 58.95 78.62"/></g></g></g></g></g></g></g></svg>