<svg xmlns="http://www.w3.org/2000/svg" viewBox="0 0 209.42 152.34"><defs><style>.cls-1{fill:#231f20;}</style></defs><title>BarGraphIcon</title><g id="Layer_2" data-name="Layer 2"><g id="Layer_1-2" data-name="Layer 1"><g id="_1213236192" data-name=" 1213236192"><polygon class="cls-1" points="60.73 0 51.03 0 51.03 152.34 209.42 152.34 209.42 142.51 60.73 142.51 60.73 0"/><polygon class="cls-1" points="74.85 48.64 94.76 48.64 94.76 126.13 74.85 126.13 74.85 48.64"/><path class="cls-1" d="M74.85,46.87h21.8v81H72.83v-81Zm18,3.65H76.74v73.71H92.87Z"/><polygon class="cls-1" points="102.06 30.62 122.1 30.62 122.1 126.13 102.06 126.13 102.06 30.62"/><path class="cls-1" d="M102.06,28.86H124v99H100.17v-99Zm18,3.65H104v91.73h16.13Z"/><polygon class="cls-1" points="129.41 77.11 149.32 77.11 149.32 126.13 129.41 126.13 129.41 77.11"/><path class="cls-1" d="M129.41,75.35h21.8V127.9H127.52V75.35Zm18,3.65H131.3v45.24h16.13Z"/><polygon class="cls-1" points="156.75 24.95 176.66 24.95 176.66 126.13 156.75 126.13 156.75 24.95"/><path class="cls-1" d="M156.75,23.06h21.8V127.9H154.73V23.06Zm18,3.65H158.64v97.53h16.13Z"/><polygon class="cls-1" points="0 2.77 35.41 2.77 35.41 128.53 0 128.53 0 2.77"/></g></g></g></svg>