<svg xmlns="http://www.w3.org/2000/svg" viewBox="0 0 165.7 165.75"><defs><style>.cls-1{fill:#231f20;}</style></defs><title>CrossVector</title><g id="Layer_2" data-name="Layer 2"><g id="Layer_1-2" data-name="Layer 1"><path class="cls-1" d="M7.71,7.75h0a26.68,26.68,0,0,1,37.51,0L82.85,45.39,120.36,7.75a26.71,26.71,0,0,1,37.63,0h0a26.68,26.68,0,0,1,0,37.51L120.36,82.9,158,120.41A26.83,26.83,0,0,1,158,158h0a26.83,26.83,0,0,1-37.63,0L82.85,120.41,45.22,158a26.68,26.68,0,0,1-37.51,0h0a26.83,26.83,0,0,1,0-37.63L45.34,82.9,7.71,45.26A26.68,26.68,0,0,1,7.71,7.75Z"/></g></g></svg>