<svg xmlns="http://www.w3.org/2000/svg" viewBox="0 0 149.39 148.94"><defs><style>.cls-1{fill:#231f20;}</style></defs><title>FlowchartIcon</title><g id="Layer_2" data-name="Layer 2"><g id="Layer_1-2" data-name="Layer 1"><path class="cls-1" d="M119.63,98.82h-.14a2.75,2.75,0,0,1-2.75-2.75v-10A2.75,2.75,0,0,0,114,83.32H37.83a2.75,2.75,0,0,0-2.75,2.75v10a2.75,2.75,0,0,1-2.75,2.75h0A2.75,2.75,0,0,1,29.57,96l.16-16a2.75,2.75,0,0,1,2.75-2.72H70.12a2.75,2.75,0,0,0,2.75-2.8l-.34-19.74A2.75,2.75,0,0,1,75.28,52h1.63a2.75,2.75,0,0,1,2.75,2.76l-.09,19.81a2.75,2.75,0,0,0,2.75,2.76h37.31a2.75,2.75,0,0,1,2.75,2.75v16A2.75,2.75,0,0,1,119.63,98.82Z"/><rect class="cls-1" x="29.21" width="89.74" height="54.44" rx="6.94" ry="6.94"/><rect class="cls-1" y="97.16" width="63.63" height="51.79" rx="6.95" ry="6.95"/><rect class="cls-1" x="85.76" y="97.16" width="63.63" height="51.79" rx="6.95" ry="6.95"/></g></g></svg>