<?xml version="1.0" encoding="utf-8"?>
<!-- Generator: Adobe Illustrator 20.0.0, SVG Export Plug-In . SVG Version: 6.00 Build 0)  -->
<svg version="1.1" id="Layer_1" xmlns="http://www.w3.org/2000/svg" xmlns:xlink="http://www.w3.org/1999/xlink" x="0px" y="0px"
	 viewBox="0 0 15.9 19.7" style="enable-background:new 0 0 15.9 19.7;" xml:space="preserve">
<style type="text/css">
	.st0{fill:#231F20;}
</style>
<title>Asset 2</title>
<g id="Layer_2">
	<g id="Layer_1-2">
		<g id="Layer_1-3">
			<g id="_1213247584">
				<ellipse class="st0" cx="8" cy="5.7" rx="5.1" ry="5.7"/>
				<polygon class="st0" points="3,11.1 3.2,11.1 3.3,11.1 3.4,11.2 3.5,11.2 3.6,11.3 3.7,11.4 3.8,11.5 4,11.7 4.1,11.9 4.2,12.1 
					4.3,12.4 4.5,12.6 4.6,12.9 4.7,13.2 4.8,13.5 4.9,13.8 5,14.2 5.1,14.5 5.2,14.8 5.3,15.2 5.4,15.5 5.5,15.9 5.6,16.2 
					5.7,16.5 5.8,16.8 6,17.1 6.1,17.4 6.3,17.7 6.6,18 7,18.3 7.4,18.4 7.9,18.5 8.5,18.4 8.9,18.2 9.3,18 9.6,17.7 9.8,17.4 
					9.9,17.1 10.1,16.7 10.2,16.4 10.3,16.1 10.4,15.8 10.5,15.5 10.6,15.1 10.7,14.8 10.8,14.5 10.9,14.1 11,13.8 11.1,13.5 
					11.2,13.2 11.3,12.9 11.5,12.6 11.6,12.3 11.7,12.1 11.9,11.9 12,11.7 12.1,11.5 12.3,11.4 12.4,11.3 12.6,11.2 12.7,11.2 
					12.8,11.1 13,11.1 13.3,11.1 13.4,11.1 13.6,11.1 13.7,11.1 13.9,11.2 14,11.2 14.1,11.2 14.3,11.3 14.4,11.3 14.5,11.4 
					14.6,11.4 14.7,11.5 14.8,11.5 14.9,11.6 15,11.7 15.1,11.8 15.2,11.8 15.3,11.9 15.4,12 15.4,12.1 15.5,12.2 15.6,12.3 
					15.6,12.4 15.7,12.4 15.7,12.5 15.8,12.6 15.8,12.7 15.8,12.7 15.8,12.8 15.9,12.8 15.9,12.9 15.9,12.9 15.9,13 15.9,18.6 
					15.9,18.8 15.9,18.9 15.8,19 15.8,19.1 15.8,19.1 15.7,19.2 15.6,19.3 15.6,19.4 15.5,19.4 15.4,19.5 15.3,19.6 15.2,19.6 
					15.1,19.6 15,19.7 14.9,19.7 14.8,19.7 1.1,19.7 1,19.7 0.9,19.7 0.8,19.6 0.7,19.6 0.6,19.6 0.5,19.5 0.4,19.4 0.3,19.4 
					0.2,19.3 0.2,19.2 0.1,19.1 0.1,19.1 0.1,19 0,18.9 0,18.8 0,18.6 0,13 0,12.9 0,12.9 0,12.9 0,12.8 0,12.8 0.1,12.7 0.1,12.7 
					0.1,12.6 0.2,12.5 0.3,12.4 0.3,12.3 0.4,12.2 0.5,12.2 0.6,12.1 0.6,12 0.7,11.9 0.8,11.8 1,11.7 1.1,11.7 1.2,11.6 1.3,11.5 
					1.5,11.4 1.6,11.4 1.7,11.3 1.9,11.3 2,11.2 2.2,11.2 2.3,11.2 2.5,11.1 2.7,11.1 2.8,11.1 				"/>
			</g>
		</g>
	</g>
</g>
</svg>
