<svg xmlns="http://www.w3.org/2000/svg" viewBox="0 0 155.61 221.32"><defs><style>.cls-1{fill:#231f20;}.cls-2{fill:#fff;}</style></defs><title>LiveMusicIcon</title><g id="Layer_2" data-name="Layer 2"><g id="Layer_1-2" data-name="Layer 1"><path class="cls-1" d="M151.2,103.23l-67.62,114a8.25,8.25,0,0,1-14.27-.12l-65-114a8.25,8.25,0,0,1,7.17-12.34H144.1A8.25,8.25,0,0,1,151.2,103.23Z"/><circle class="cls-1" cx="77.81" cy="77.81" r="77.81"/><circle class="cls-2" cx="77.81" cy="77.81" r="50.58"/><path class="cls-1" d="M77.78,48.61h0A10.68,10.68,0,0,0,67.13,59.26v23.5A10.68,10.68,0,0,0,72.48,92v11.49A3.52,3.52,0,0,0,76,107H79.6a3.49,3.49,0,0,0,3.49-3.49V92a10.72,10.72,0,0,0,5.4-9.26V59.26A10.72,10.72,0,0,0,77.78,48.61Z"/><path class="cls-1" d="M102.59,57.73A35.69,35.69,0,0,0,100.26,65a37.82,37.82,0,0,0-.79,7.59,36.17,36.17,0,0,0,.88,8.05A37.48,37.48,0,0,0,103,88.3a2,2,0,0,0,2.51.79,1.87,1.87,0,0,0,.6-1.4h0v-.19h0a2.72,2.72,0,0,0-.09-.6,49.14,49.14,0,0,1-1.63-7,55.23,55.23,0,0,1-.51-7.35,49.12,49.12,0,0,1,.47-6.93,52.05,52.05,0,0,1,1.4-6.61,2,2,0,0,0-.56-2.14A2,2,0,0,0,102.59,57.73Z"/><path class="cls-1" d="M99.79,49.49a1.81,1.81,0,0,0-2.42.6,44.18,44.18,0,0,0-4.51,10.84,44.84,44.84,0,0,0,0,23.27A45,45,0,0,0,97.37,95a1.9,1.9,0,0,0,2.42.6,2,2,0,0,0,.47-2.23A51.6,51.6,0,0,1,97.1,83.37a55,55,0,0,1,0-21.59,50.62,50.62,0,0,1,3.16-10.05A2,2,0,0,0,99.79,49.49Z"/><path class="cls-1" d="M53,57.73A35.82,35.82,0,0,1,55.35,65a37.82,37.82,0,0,1,.79,7.59,36.22,36.22,0,0,1-.93,8.05,37.34,37.34,0,0,1-2.61,7.68,2,2,0,0,1-2.51.79,1.72,1.72,0,0,1-.6-1.4h0v-.19h0a2.72,2.72,0,0,1,.09-.6,49.05,49.05,0,0,0,1.58-7,48.44,48.44,0,0,0,.56-7.35,49.14,49.14,0,0,0-.51-6.93A39.72,39.72,0,0,0,49.82,59a2,2,0,0,1,.56-2.14A2,2,0,0,1,53,57.73Z"/><path class="cls-1" d="M55.82,49.49a1.81,1.81,0,0,1,2.42.6,45.92,45.92,0,0,1,4.47,10.84,44.36,44.36,0,0,1,1.54,11.63,44.62,44.62,0,0,1-1.54,11.63A46.74,46.74,0,0,1,58.24,95a1.9,1.9,0,0,1-2.42.6,1.93,1.93,0,0,1-.47-2.23,51.5,51.5,0,0,0,3.12-10.05,55.52,55.52,0,0,0,1.07-10.8,55.16,55.16,0,0,0-1.07-10.8,50.53,50.53,0,0,0-3.12-10.05A1.9,1.9,0,0,1,55.82,49.49Z"/></g></g></svg>