<?xml version="1.0" encoding="utf-8"?>
<!-- Generator: Adobe Illustrator 20.0.0, SVG Export Plug-In . SVG Version: 6.00 Build 0)  -->
<svg version="1.1" id="Layer_1" xmlns="http://www.w3.org/2000/svg" xmlns:xlink="http://www.w3.org/1999/xlink" x="0px" y="0px"
	 viewBox="0 0 635.3 419.2" style="enable-background:new 0 0 635.3 419.2;" xml:space="preserve">
<style type="text/css">
	.st0{filter:url(#Adobe_OpacityMaskFilter);}
	.st1{mask:url(#SVGID_1_);}
	.st2{fill:#012538;}
	.st3{fill:#FFFFFF;}
	.st4{fill:#231F20;}
	.st5{fill:#07858F;}
	.st6{fill:#C52E55;}
</style>
<title>MusicMarketplace</title>
<g id="Layer_2">
	<defs>
		<filter id="Adobe_OpacityMaskFilter" filterUnits="userSpaceOnUse" x="0" y="0" width="635.3" height="419.2">
			<feFlood  style="flood-color:white;flood-opacity:1" result="back"/>
			<feBlend  in="SourceGraphic" in2="back" mode="normal"/>
		</filter>
	</defs>
	<mask maskUnits="userSpaceOnUse" x="0" y="0" width="635.3" height="419.2" id="SVGID_1_">
		<g class="st0">
			<image style="overflow:visible;" width="640" height="424" xlink:href="D5FE7F5.jpg"  transform="matrix(1 0 0 1 -2 -2.76)">
			</image>
		</g>
	</mask>
	<g class="st1">
		<g>
			<g id="Layer_1-2_9_">
				<g id="Layer_2-2_9_">
					<g>
						<g id="Layer_1-2-2_9_">
							<path class="st2" d="M620.2,191.6c-1-53.8-17.5-96.6-37.8-96.6c-0.5,0-1,0-1.5,0.1c-1.5-52.7-63.5-95-139.9-95
								c-35.5,0-67.9,9.2-92.5,24.2c-10.1,0-20.1,1.5-29.7,4.6C299.2,14.3,270.5,5,238.4,5c-35.5,0-66.9,11.3-86.2,28.7
								c-8.8-0.9-17.6-1.4-26.4-1.4C56.3,32.3,0,60.4,0,94.9c0,29.9,42.2,55,98.6,61.2c-0.4,3.8-0.6,7.5-0.6,11.3
								c0,24,8,45.5,20.5,59.5c-4.1,5.2-6.3,11-6.3,17c0,14.6,13,27.4,33,35.2c-8.2,11-12.8,23.4-12.8,36.6
								c0,44.3,52.2,80.3,116.6,80.3c24.2,0,46.7-5.1,65.3-13.8c13.8,22.3,37.1,37,63.5,37s49.4-14.6,63.2-36.7
								c14,8.4,31.9,13.5,51.4,13.5c30.6,0,57.2-12.4,70.8-30.6c1.7,0.2,3.3,0.3,5,0.3c37.1,0,67.2-47.7,67.2-106.6
								C635.3,233.5,629.7,210,620.2,191.6z"/>
							<path class="st3" d="M216.4,125.3L216.4,125.3c1.3,0,2.3,1,2.3,2.3v5c0,1.3-1,2.3-2.3,2.3h0c-1.3,0-2.3-1-2.3-2.3v-5
								C214.1,126.3,215.1,125.3,216.4,125.3z"/>
							<path class="st3" d="M213.9,127.8h5c1.3,0,2.3,1,2.3,2.3v0c0,1.3-1,2.3-2.3,2.3h-5c-1.3,0-2.3-1-2.3-2.3v0
								C211.6,128.8,212.6,127.8,213.9,127.8z"/>
							<path class="st3" d="M483.4,186.3L483.4,186.3c1.3,0,2.3,1,2.3,2.3v5c0,1.3-1,2.3-2.3,2.3h0c-1.3,0-2.3-1-2.3-2.3v-5
								C481.1,187.3,482.1,186.3,483.4,186.3z"/>
							<path class="st3" d="M480.9,188.8h5c1.3,0,2.3,1,2.3,2.3v0c0,1.3-1,2.3-2.3,2.3h-5c-1.3,0-2.3-1-2.3-2.3v0
								C478.6,189.8,479.6,188.8,480.9,188.8z"/>
							<path class="st3" d="M317.7,262.9L317.7,262.9c1.3,0,2.3,1,2.3,2.3v5c0,1.3-1,2.3-2.3,2.3h0c-1.3,0-2.3-1-2.3-2.3v-5
								C315.4,263.9,316.4,262.9,317.7,262.9z"/>
							<path class="st3" d="M315.2,265.4h5c1.3,0,2.3,1,2.3,2.3v0c0,1.3-1,2.3-2.3,2.3h-5c-1.3,0-2.3-1-2.3-2.3v0
								C312.9,266.4,313.9,265.4,315.2,265.4z"/>
							<path class="st3" d="M392,167.1L392,167.1c1.3,0,2.3,1,2.3,2.3v5c0,1.3-1,2.3-2.3,2.3h0c-1.3,0-2.3-1-2.3-2.3v-5
								C389.7,168.1,390.8,167.1,392,167.1z"/>
							<path class="st3" d="M389.5,169.6h5c1.3,0,2.3,1,2.3,2.3v0c0,1.3-1,2.3-2.3,2.3h-5c-1.3,0-2.3-1-2.3-2.3v0
								C387.3,170.6,388.3,169.6,389.5,169.6z"/>
							<path class="st3" d="M435,216.7L435,216.7c1.3,0,2.3,1,2.3,2.3v5c0,1.3-1,2.3-2.3,2.3h0c-1.3,0-2.3-1-2.3-2.3v-5
								C432.7,217.8,433.7,216.7,435,216.7z"/>
							<path class="st3" d="M432.5,219.2h5c1.3,0,2.3,1,2.3,2.3v0c0,1.3-1,2.3-2.3,2.3h-5c-1.3,0-2.3-1-2.3-2.3v0
								C430.2,220.2,431.2,219.2,432.5,219.2z"/>
							<path class="st3" d="M362.7,111.3L362.7,111.3c1.3,0,2.3,1,2.3,2.3v5c0,1.3-1,2.3-2.3,2.3h0c-1.3,0-2.3-1-2.3-2.3v-5
								C360.4,112.4,361.5,111.3,362.7,111.3z"/>
							<path class="st3" d="M360.3,113.8h5c1.3,0,2.3,1,2.3,2.3v0c0,1.3-1,2.3-2.3,2.3h-5c-1.3,0-2.3-1-2.3-2.3v0
								C358,114.9,359,113.8,360.3,113.8z"/>
							<path class="st3" d="M263.2,228.3L263.2,228.3c1.3,0,2.3,1,2.3,2.3v5c0,1.3-1,2.3-2.3,2.3h0c-1.3,0-2.3-1-2.3-2.3v-5
								C260.9,229.3,262,228.3,263.2,228.3z"/>
							<path class="st3" d="M260.8,230.8h5c1.3,0,2.3,1,2.3,2.3v0c0,1.3-1,2.3-2.3,2.3h-5c-1.3,0-2.3-1-2.3-2.3v0
								C258.5,231.8,259.5,230.8,260.8,230.8z"/>
							<path class="st3" d="M464,113.7L464,113.7c1.3,0,2.3,1,2.3,2.3v5c0,1.3-1,2.3-2.3,2.3h0c-1.3,0-2.3-1-2.3-2.3v-5
								C461.7,114.7,462.7,113.7,464,113.7z"/>
							<path class="st3" d="M461.5,116.1h5c1.3,0,2.3,1,2.3,2.3v0c0,1.3-1,2.3-2.3,2.3h-5c-1.3,0-2.3-1-2.3-2.3v0
								C459.2,117.2,460.2,116.1,461.5,116.1z"/>
							<path class="st3" d="M308.1,125.5L308.1,125.5c1.3,0,2.3,1,2.3,2.3v5c0,1.3-1,2.3-2.3,2.3h0c-1.3,0-2.3-1-2.3-2.3v-5
								C305.8,126.6,306.8,125.5,308.1,125.5z"/>
							<path class="st3" d="M305.6,128h5c1.3,0,2.3,1,2.3,2.3v0c0,1.3-1,2.3-2.3,2.3h-5c-1.3,0-2.3-1-2.3-2.3v0
								C303.3,129,304.3,128,305.6,128z"/>
							<path class="st3" d="M332.9,212L332.9,212c1.3,0,2.3,1,2.3,2.3v5c0,1.3-1,2.3-2.3,2.3h0c-1.3,0-2.3-1-2.3-2.3v-5
								C330.6,213,331.6,212,332.9,212z"/>
							<path class="st3" d="M330.4,214.4h5c1.3,0,2.3,1,2.3,2.3v0c0,1.3-1,2.3-2.3,2.3h-5c-1.3,0-2.3-1-2.3-2.3v0
								C328.1,215.5,329.1,214.4,330.4,214.4z"/>
							<g id="Layer_2-2-2_9_">
								<g id="Layer_1-2-2-2_9_">
									<g id="Layer_1-2-2-2-2_9_">
										<path class="st4" d="M382,77l-16.8,28.3c-0.5,1-1.7,1.4-2.7,0.9c-0.4-0.2-0.7-0.5-0.9-0.9l-16.2-28.4
											c-0.6-1-0.2-2.2,0.8-2.8c0.3-0.2,0.7-0.3,1-0.3h33c1.1-0.1,2.1,0.7,2.1,1.8C382.4,76.2,382.3,76.6,382,77z"/>
										<circle class="st4" cx="363.7" cy="70.6" r="19.4"/>
										<circle class="st5" cx="363.7" cy="70.6" r="12.6"/>
										<g id="Layer_2-2-2-2_9_">
											<g id="Layer_1-2-3_9_">
												<g id="Layer_1-3_9_">
													<g id="_1213247584_9_">
														<ellipse class="st4" cx="363.8" cy="65.7" rx="4.8" ry="5.4"/>
														<polygon class="st4" points="359,70.8 359.2,70.8 359.3,70.8 359.4,70.9 359.5,70.9 359.6,71 359.7,71.1 359.8,71.2 
															360,71.4 360.1,71.6 360.2,71.8 360.3,72.1 360.4,72.3 360.5,72.5 360.6,72.8 360.7,73.1 360.8,73.4 360.9,73.8 
															361,74.1 361.1,74.3 361.2,74.7 361.3,75 361.4,75.4 361.5,75.7 361.6,75.9 361.7,76.2 361.9,76.5 362,76.8 
															362.1,77.1 362.4,77.4 362.8,77.7 363.2,77.7 363.7,77.8 364.2,77.7 364.6,77.6 365,77.4 365.3,77.1 365.5,76.8 
															365.6,76.5 365.8,76.1 365.9,75.9 365.9,75.6 366,75.3 366.1,75 366.2,74.6 366.3,74.3 366.4,74.1 366.5,73.7 
															366.6,73.4 366.7,73.1 366.8,72.8 366.9,72.5 367.1,72.3 367.2,72 367.3,71.8 367.5,71.6 367.5,71.4 367.6,71.2 
															367.8,71.1 367.9,71 368.1,70.9 368.2,70.9 368.3,70.8 368.5,70.8 368.8,70.8 368.9,70.8 369.1,70.8 369.2,70.8 
															369.4,70.9 369.5,70.9 369.5,70.9 369.7,71 369.8,71 369.9,71.1 370,71.1 370.1,71.2 370.2,71.2 370.3,71.3 
															370.4,71.4 370.5,71.5 370.6,71.5 370.7,71.6 370.8,71.7 370.8,71.8 370.9,71.9 371,72 371,72.1 371.1,72.1 
															371.1,72.2 371.1,72.3 371.1,72.3 371.1,72.3 371.1,72.4 371.3,72.4 371.3,72.5 371.3,72.5 371.3,72.6 371.3,77.9 
															371.3,78.1 371.3,78.2 371.1,78.3 371.1,78.4 371.1,78.4 371.1,78.5 371,78.6 371,78.7 370.9,78.7 370.8,78.8 
															370.7,78.9 370.6,78.9 370.5,78.9 370.4,79 370.3,79 370.2,79 357.2,79 357.1,79 357,79 356.9,78.9 356.8,78.9 
															356.8,78.9 356.6,78.8 356.6,78.7 356.5,78.7 356.4,78.6 356.4,78.5 356.3,78.4 356.3,78.4 356.3,78.3 356.2,78.2 
															356.2,78.1 356.2,77.9 356.2,72.6 356.2,72.5 356.2,72.5 356.2,72.5 356.2,72.4 356.2,72.4 356.3,72.3 356.3,72.3 
															356.3,72.3 356.4,72.2 356.5,72.1 356.5,72 356.6,71.9 356.6,71.9 356.8,71.8 356.8,71.7 356.8,71.6 356.9,71.5 
															357.1,71.4 357.2,71.4 357.3,71.3 357.4,71.2 357.6,71.1 357.7,71.1 357.8,71 358,71 358.1,70.9 358.3,70.9 
															358.4,70.9 358.5,70.8 358.7,70.8 358.8,70.8 														"/>
													</g>
												</g>
											</g>
										</g>
									</g>
								</g>
							</g>
							<g id="Layer_2-3_9_">
								<g id="Layer_1-2-3-2_9_">
									<g id="Layer_1-2-2-3_9_">
										<path class="st4" d="M484.6,75.7L467.8,104c-0.5,1-1.7,1.4-2.7,0.9c-0.4-0.2-0.7-0.5-0.9-0.9L448,75.7
											c-0.6-1-0.2-2.2,0.8-2.8c0.3-0.2,0.7-0.3,1-0.3h33c1.1,0,2.1,0.9,2.1,2C484.8,75,484.7,75.4,484.6,75.7L484.6,75.7z"/>
										<circle class="st4" cx="466.3" cy="69.4" r="19.4"/>
										<circle class="st5" cx="466.3" cy="69.4" r="12.6"/>
										<g id="Layer_2-2-3_9_">
											<g id="Layer_1-2-3-3_9_">
												<g id="Layer_1-3-2_9_">
													<g id="_1213247584-2_9_">
														<ellipse class="st4" cx="466.4" cy="64.5" rx="4.8" ry="5.4"/>
														<polygon class="st4" points="461.6,69.6 461.8,69.6 461.9,69.6 462,69.7 462.1,69.7 462.2,69.8 462.3,69.9 462.4,70 
															462.6,70.1 462.7,70.3 462.8,70.5 462.9,70.8 463,71 463.1,71.3 463.2,71.6 463.3,71.8 463.4,72.1 463.5,72.5 
															463.6,72.8 463.7,73.1 463.8,73.5 463.9,73.7 464,74.1 464.1,74.4 464.2,74.7 464.3,75 464.5,75.3 464.6,75.5 
															464.8,75.8 465,76.1 465.4,76.4 465.8,76.5 466.3,76.6 466.8,76.5 467.2,76.3 467.6,76.1 467.9,75.8 468.1,75.5 
															468.2,75.3 468.4,74.9 468.5,74.6 468.5,74.3 468.6,74 468.7,73.7 468.8,73.4 468.9,73.1 469,72.8 469.1,72.4 
															469.2,72.1 469.3,71.8 469.4,71.6 469.5,71.3 469.7,71 469.8,70.7 469.9,70.5 470.1,70.3 470.2,70.1 470.3,70 
															470.4,69.9 470.5,69.8 470.7,69.7 470.8,69.7 470.9,69.6 471.1,69.6 471.4,69.6 471.5,69.6 471.7,69.6 471.8,69.6 
															472,69.7 472,69.7 472.1,69.7 472.3,69.8 472.4,69.8 472.5,69.9 472.6,69.9 472.7,70 472.8,70 472.9,70 473,70.1 
															473.1,70.2 473.2,70.2 473.3,70.3 473.4,70.4 473.4,70.5 473.5,70.6 473.6,70.7 473.6,70.8 473.7,70.8 473.7,70.9 
															473.8,71 473.8,71.1 473.8,71.1 473.8,71.2 473.9,71.2 473.9,71.3 473.9,71.3 473.9,71.4 473.9,76.7 473.9,76.9 
															473.9,77 473.8,77.1 473.8,77.2 473.8,77.2 473.7,77.3 473.6,77.3 473.6,77.4 473.5,77.4 473.4,77.5 473.3,77.6 
															473.2,77.6 473.1,77.6 473,77.7 472.9,77.7 472.8,77.7 459.8,77.7 459.7,77.7 459.6,77.7 459.5,77.6 459.5,77.6 
															459.4,77.6 459.3,77.5 459.2,77.4 459.1,77.4 459,77.3 459,77.3 458.9,77.2 458.9,77.2 458.9,77.1 458.8,77 
															458.8,76.9 458.8,76.7 458.8,71.4 458.8,71.3 458.8,71.3 458.8,71.3 458.8,71.2 458.8,71.2 458.9,71.1 458.9,71.1 
															458.9,71 459,70.9 459.1,70.8 459.1,70.7 459.2,70.6 459.3,70.6 459.4,70.5 459.4,70.4 459.5,70.3 459.5,70.2 
															459.7,70.1 459.8,70.1 459.9,70 460,70 460.2,69.9 460.3,69.9 460.4,69.8 460.6,69.8 460.7,69.7 460.9,69.7 461,69.7 
															461.1,69.6 461.3,69.6 461.4,69.6 														"/>
													</g>
												</g>
											</g>
										</g>
									</g>
								</g>
							</g>
							<g id="Layer_2-4_9_">
								<g id="Layer_1-2-4_9_">
									<g id="Layer_2-2-4_9_">
										<g id="Layer_1-2-2-4_9_">
											<path class="st4" d="M282,189.2l-17.3,29.1c-0.6,1-1.9,1.4-2.9,0.8c-0.3-0.2-0.6-0.4-0.8-0.8l-16.6-29.1
												c-0.6-1-0.2-2.3,0.8-2.9c0.3-0.2,0.7-0.3,1-0.3h33.9c1.2,0,2.1,0.9,2.1,2.1C282.3,188.5,282.2,188.9,282,189.2L282,189.2
												z"/>
											<circle class="st4" cx="263.2" cy="182.7" r="19.9"/>
											<circle class="st6" cx="263.2" cy="182.7" r="12.9"/>
											<path class="st4" d="M263.2,175.2L263.2,175.2c-1.5,0-2.7,1.2-2.7,2.7v6c0,1,0.5,1.9,1.4,2.4v2.9c0,0.5,0.4,0.9,0.9,0.9
												h0.9c0.5,0,0.9-0.4,0.9-0.9v0l0,0v-2.9c0.9-0.5,1.4-1.4,1.4-2.4v-6C266,176.4,264.7,175.2,263.2,175.2z"/>
											<path class="st4" d="M269.6,177.5c-0.3,0.6-0.5,1.2-0.6,1.9c-0.1,0.6-0.2,1.3-0.2,1.9c0,0.7,0.1,1.4,0.2,2.1
												c0.2,0.7,0.4,1.4,0.7,2c0.1,0.2,0.4,0.3,0.6,0.2c0.1-0.1,0.2-0.2,0.1-0.4l0,0c0,0,0-0.1,0-0.1c-0.2-0.6-0.3-1.2-0.4-1.8
												c-0.1-0.6-0.1-1.3-0.1-1.9c0-0.6,0-1.2,0.1-1.8c0.1-0.6,0.2-1.1,0.4-1.7c0.1-0.2,0.1-0.5-0.1-0.6
												C270.1,177.2,269.8,177.3,269.6,177.5C269.6,177.5,269.6,177.5,269.6,177.5L269.6,177.5z"/>
											<path class="st4" d="M268.9,175.4c-0.2-0.1-0.5-0.1-0.6,0.1c-2.1,3.5-2.1,7.9,0,11.5c0.1,0.2,0.4,0.3,0.6,0.1
												c0.2-0.1,0.2-0.4,0.1-0.6c-0.4-0.8-0.6-1.7-0.8-2.6c-0.4-1.8-0.4-3.7,0-5.5c0.2-0.9,0.5-1.7,0.8-2.6
												C269.1,175.8,269,175.6,268.9,175.4z"/>
											<path class="st4" d="M256.9,177.5c0.3,0.6,0.5,1.2,0.6,1.9c0.1,0.6,0.2,1.3,0.2,1.9c0,0.7-0.1,1.4-0.2,2.1
												c-0.1,0.7-0.4,1.4-0.7,2c-0.1,0.2-0.4,0.3-0.6,0.2c-0.1-0.1-0.2-0.2-0.1-0.4l0,0c0,0,0-0.1,0-0.1
												c0.2-0.6,0.3-1.2,0.4-1.8c0.1-0.6,0.1-1.3,0.1-1.9c0-0.6,0-1.2-0.1-1.8c-0.1-0.6-0.2-1.1-0.4-1.7c-0.1-0.2,0-0.5,0.2-0.6
												c0.2-0.1,0.4,0,0.6,0.1v0.1L256.9,177.5z"/>
											<path class="st4" d="M257.6,175.4c0.2-0.1,0.5-0.1,0.6,0.1c0.5,0.9,0.9,1.8,1.1,2.8c0.5,1.9,0.5,4,0,5.9
												c-0.3,1-0.6,1.9-1.1,2.8c-0.1,0.2-0.3,0.3-0.6,0.2s-0.3-0.3-0.2-0.6c0,0,0-0.1,0.1-0.1c0.4-0.8,0.6-1.7,0.8-2.6
												c0.4-1.8,0.4-3.7,0-5.5c-0.2-0.9-0.4-1.7-0.8-2.6C257.4,175.8,257.5,175.6,257.6,175.4z"/>
										</g>
									</g>
								</g>
							</g>
							<g id="Layer_2-5_9_">
								<g id="Layer_1-2-5_9_">
									<g id="Layer_2-2-5_9_">
										<g id="Layer_1-2-2-5_9_">
											<path class="st4" d="M235.1,88.2l-17.3,29.1c-0.6,1-1.9,1.4-2.9,0.8c-0.3-0.2-0.6-0.4-0.8-0.8l-16.6-29.2
												c-0.6-1-0.2-2.3,0.8-2.9c0.3-0.2,0.7-0.3,1-0.3h33.9c1.2,0,2.1,1,2.1,2.1C235.4,87.5,235.3,87.9,235.1,88.2L235.1,88.2z"
												/>
											<circle class="st4" cx="216.4" cy="81.7" r="19.9"/>
											<circle class="st6" cx="216.4" cy="81.7" r="12.9"/>
											<path class="st4" d="M216.4,74.2L216.4,74.2c-1.5,0-2.7,1.2-2.7,2.7c0,0,0,0,0,0v6c0,1,0.5,1.8,1.4,2.3v2.9
												c0,0.5,0.4,0.9,0.9,0.9h0.9c0.5,0,0.9-0.4,0.9-0.9v-3c0.8-0.5,1.4-1.4,1.4-2.3v-6C219.1,75.5,217.9,74.3,216.4,74.2
												C216.4,74.2,216.4,74.2,216.4,74.2L216.4,74.2z"/>
											<path class="st4" d="M222.7,76.6c-0.3,0.6-0.5,1.2-0.6,1.9c-0.1,0.6-0.2,1.3-0.2,1.9c0,0.7,0.1,1.4,0.2,2.1
												c0.2,0.7,0.4,1.4,0.7,2c0.1,0.2,0.4,0.3,0.6,0.2c0.1-0.1,0.2-0.2,0.1-0.4l0,0c0,0,0-0.1,0-0.2c-0.2-0.6-0.3-1.2-0.4-1.8
												c-0.1-0.6-0.1-1.3-0.1-1.9c0-0.6,0-1.2,0.1-1.8c0.1-0.6,0.2-1.1,0.4-1.7c0.1-0.2,0.1-0.5-0.1-0.6
												C223.2,76.2,222.9,76.3,222.7,76.6C222.8,76.5,222.8,76.6,222.7,76.6L222.7,76.6z"/>
											<path class="st4" d="M222,74.5c-0.2-0.1-0.5-0.1-0.6,0.2c-2.1,3.5-2.1,7.9,0,11.5c0.1,0.2,0.4,0.3,0.6,0.2
												c0.2-0.1,0.2-0.4,0.1-0.6c-0.4-0.8-0.6-1.7-0.8-2.6c-0.4-1.8-0.4-3.7,0-5.5c0.2-0.9,0.5-1.7,0.8-2.6
												C222.2,74.8,222.2,74.6,222,74.5z"/>
											<path class="st4" d="M210,76.6c0.3,0.6,0.5,1.2,0.6,1.9c0.1,0.6,0.2,1.3,0.2,1.9c0,0.7-0.1,1.4-0.2,2.1
												c-0.1,0.7-0.4,1.4-0.7,2c-0.1,0.2-0.4,0.3-0.6,0.2c-0.1-0.1-0.2-0.2-0.1-0.4l0,0c0,0,0-0.1,0-0.2
												c0.2-0.6,0.3-1.2,0.4-1.8c0.1-0.6,0.1-1.3,0.1-1.9c0-0.6,0-1.2-0.1-1.8c-0.1-0.6-0.2-1.1-0.4-1.7c-0.1-0.2,0-0.5,0.2-0.6
												C209.6,76.3,209.8,76.4,210,76.6L210,76.6z"/>
											<path class="st4" d="M210.8,74.5c0.2-0.1,0.5-0.1,0.6,0.2c0.5,0.9,0.9,1.8,1.1,2.8c0.5,1.9,0.5,4,0,5.9
												c-0.3,1-0.6,1.9-1.1,2.8c-0.1,0.2-0.3,0.3-0.6,0.2c-0.2-0.1-0.3-0.3-0.2-0.6c0,0,0-0.1,0.1-0.1c0.4-0.8,0.6-1.7,0.8-2.6
												c0.4-1.8,0.4-3.7,0-5.5c-0.2-0.9-0.4-1.7-0.8-2.6C210.6,74.8,210.6,74.6,210.8,74.5z"/>
										</g>
									</g>
								</g>
							</g>
							<g id="Layer_2-6_9_">
								<g id="Layer_1-2-6_9_">
									<g id="Layer_2-2-6_9_">
										<g id="Layer_1-2-2-6_9_">
											<path class="st4" d="M452.6,179.4l-17.3,29.1c-0.6,1-1.9,1.4-2.9,0.8c-0.3-0.2-0.6-0.4-0.8-0.8L415,179.4
												c-0.6-1-0.2-2.3,0.8-2.9c0.3-0.2,0.7-0.3,1-0.3h33.9c1.2,0,2.1,1,2.1,2.1C452.8,178.7,452.7,179.1,452.6,179.4
												L452.6,179.4z"/>
											<circle class="st4" cx="433.8" cy="172.9" r="19.9"/>
											<circle class="st6" cx="433.8" cy="172.9" r="12.9"/>
											<path class="st4" d="M433.8,165.5L433.8,165.5c-1.5,0-2.7,1.2-2.7,2.7v6c0,1,0.5,1.9,1.4,2.4v2.9c0,0.5,0.4,0.9,0.9,0.9
												h0.9c0.5,0,0.9-0.4,0.9-0.9v0l0,0v-2.9c0.9-0.5,1.4-1.4,1.4-2.4v-6C436.5,166.7,435.3,165.5,433.8,165.5z"/>
											<path class="st4" d="M440.2,167.8c-0.3,0.6-0.5,1.2-0.6,1.9c-0.1,0.6-0.2,1.3-0.2,1.9c0,0.7,0.1,1.4,0.2,2.1
												c0.2,0.7,0.4,1.4,0.7,2c0.1,0.2,0.4,0.3,0.6,0.2c0.1-0.1,0.2-0.2,0.1-0.4l0,0c0,0,0-0.1,0-0.1c-0.2-0.6-0.3-1.2-0.4-1.8
												c-0.1-0.6-0.1-1.3-0.1-1.9c0-0.6,0-1.2,0.1-1.8c0.1-0.6,0.2-1.1,0.4-1.7c0.1-0.2,0.1-0.5-0.1-0.6
												C440.7,167.5,440.4,167.5,440.2,167.8C440.2,167.8,440.2,167.8,440.2,167.8L440.2,167.8z"/>
											<path class="st4" d="M439.4,165.7c-0.2-0.1-0.5-0.1-0.6,0.1c-2.1,3.5-2.1,7.9,0,11.5c0.1,0.2,0.4,0.3,0.6,0.1
												c0.2-0.1,0.2-0.4,0.1-0.6c-0.4-0.8-0.6-1.7-0.8-2.6c-0.4-1.8-0.4-3.7,0-5.5c0.2-0.9,0.5-1.7,0.8-2.6
												C439.6,166.1,439.6,165.8,439.4,165.7z"/>
											<path class="st4" d="M427.5,167.8c0.3,0.6,0.5,1.2,0.6,1.9c0.1,0.6,0.2,1.3,0.2,1.9c0,0.7-0.1,1.4-0.2,2.1
												c-0.1,0.7-0.4,1.4-0.7,2c-0.1,0.2-0.4,0.3-0.6,0.2c-0.1-0.1-0.2-0.2-0.1-0.4l0,0c0,0,0-0.1,0-0.1
												c0.2-0.6,0.3-1.2,0.4-1.8c0.1-0.6,0.1-1.3,0.1-1.9c0-0.6,0-1.2-0.1-1.8c-0.1-0.6-0.2-1.1-0.4-1.7c-0.1-0.2,0-0.5,0.2-0.6
												C427.1,167.6,427.3,167.6,427.5,167.8L427.5,167.8z"/>
											<path class="st4" d="M428.2,165.7c0.2-0.1,0.5-0.1,0.6,0.1c0.5,0.9,0.9,1.8,1.1,2.8c0.5,1.9,0.5,4,0,5.9
												c-0.3,1-0.6,1.9-1.1,2.8c-0.1,0.2-0.3,0.3-0.6,0.2s-0.3-0.3-0.2-0.6c0,0,0-0.1,0.1-0.1c0.4-0.8,0.6-1.7,0.8-2.6
												c0.4-1.8,0.4-3.7,0-5.5c-0.2-0.9-0.4-1.7-0.8-2.6C428,166.1,428.1,165.8,428.2,165.7z"/>
										</g>
									</g>
								</g>
							</g>
						</g>
					</g>
				</g>
			</g>
		</g>
	</g>
</g>
</svg>
