<svg xmlns="http://www.w3.org/2000/svg" viewBox="0 0 104.88 106.59"><defs><style>.cls-1{fill:#231f20;}</style></defs><title>SpeakerSymbolIcon</title><g id="Layer_2" data-name="Layer 2"><g id="Layer_1-2" data-name="Layer 1"><path class="cls-1" d="M58.13,4.15a4.57,4.57,0,0,1,4.51,4.51v93.5a4.5,4.5,0,0,1-4.51,4.43L29.41,75.73H3a3,3,0,0,1-3-3.06V37.46a3,3,0,0,1,3-3h27Z"/><path class="cls-1" d="M79.37,19.2a88.33,88.33,0,0,1,5.27,16.5A86.33,86.33,0,0,1,86.4,52.89a86.23,86.23,0,0,1-2,18.26,83.14,83.14,0,0,1-6,17.49c-.76,1.68-4,2.9-5.65,1.76a4.16,4.16,0,0,1-1.38-3.13h0v-.46h0a4.33,4.33,0,0,1,.23-1.38,98,98,0,0,0,3.59-15.89,108.88,108.88,0,0,0,1.22-16.65,117.19,117.19,0,0,0-1.07-15.66,97.48,97.48,0,0,0-3.21-15c-.53-1.83.08-4,1.3-4.89C75.09,16.15,78.53,17.37,79.37,19.2Z"/><path class="cls-1" d="M85.71.56c1.6-1.22,4.51-.31,5.5,1.3a104.49,104.49,0,0,1,10.16,24.6,102.93,102.93,0,0,1,3.51,26.43,101.91,101.91,0,0,1-3.51,26.35,103.18,103.18,0,0,1-10.16,24.6c-1,1.68-3.9,2.6-5.5,1.38a4.34,4.34,0,0,1-1.07-5,111.94,111.94,0,0,0,7.1-22.84,123.4,123.4,0,0,0,2.44-24.44,124.17,124.17,0,0,0-2.44-24.52,111.24,111.24,0,0,0-7.1-22.76A4.4,4.4,0,0,1,85.71.56Z"/></g></g></svg>