<svg xmlns="http://www.w3.org/2000/svg" viewBox="0 0 319.78 184.91"><defs><style>.cls-1{fill:#231f20;}</style></defs><title>Asset 1</title><g id="Layer_2" data-name="Layer 2"><g id="Layer_1-2" data-name="Layer 1"><path class="cls-1" d="M214,19.27C155.54,19.27,108.31,51,108.31,90S155.54,158.83,214,160.71c12.45,10.57,10.81,18.8,50.52,24.2-9.16-7-20.91-12.69-19-26.79,43-8.22,74.25-36.18,74.25-68.14C319.78,50.52,272.55,19.27,214,19.27ZM72.13,0c29.13,0,54,11.51,65.55,28.19C111.84,42.76,95.63,64.38,95.63,88.58a25.54,25.54,0,0,0,.23,4.23A111.15,111.15,0,0,1,72.13,96.1c-8.69,7.28-7.52,12.92-34.54,16.45,6.34-4.7,14.33-8.69,12.92-18.09C21.38,88.81,0,69.78,0,47.93,0,21.15,32.19,0,72.13,0Z"/></g></g></svg>