<?xml version="1.0" encoding="utf-8"?>
<!-- Generator: Adobe Illustrator 21.0.0, SVG Export Plug-In . SVG Version: 6.00 Build 0)  -->
<svg version="1.1" id="Layer_1" xmlns="http://www.w3.org/2000/svg" xmlns:xlink="http://www.w3.org/1999/xlink" x="0px" y="0px"
	 viewBox="0 0 155.6 221.3" style="enable-background:new 0 0 155.6 221.3;" xml:space="preserve">
<style type="text/css">
	.st0{fill:#231F20;}
	.st1{fill:#FFFFFF;}
</style>
<title>VenueLocationIcon</title>
<g id="Layer_2">
	<g id="Layer_1-2">
		<g id="Layer_2-2">
			<g id="Layer_1-2-2">
				<path class="st0" d="M151.2,103.2l-67.6,114c-2.3,3.9-7.4,5.2-11.3,2.9c-1.2-0.7-2.3-1.8-3-3l-65-114c-2.3-4-0.9-9,3.1-11.3
					c1.2-0.7,2.7-1.1,4.1-1.1h132.6c4.6,0,8.3,3.7,8.3,8.2C152.4,100.5,152,102,151.2,103.2L151.2,103.2z"/>
				<circle class="st0" cx="77.8" cy="77.8" r="77.8"/>
				<circle class="st1" cx="77.8" cy="77.8" r="50.6"/>
				<path class="st0" d="M77.8,48.6L77.8,48.6c-5.9,0-10.6,4.8-10.7,10.6v23.5c0,3.8,2,7.3,5.4,9.2v11.5c0,1.9,1.6,3.5,3.5,3.5h3.6
					c1.9,0,3.5-1.6,3.5-3.5V92c3.3-1.9,5.4-5.4,5.4-9.3V59.3C88.5,53.4,83.7,48.6,77.8,48.6z"/>
				<path class="st0" d="M102.6,57.7c-1,2.3-1.8,4.8-2.3,7.3c-0.5,2.5-0.8,5-0.8,7.6c0,2.7,0.3,5.4,0.9,8.1c0.6,2.6,1.5,5.2,2.7,7.7
					c0.5,0.9,1.6,1.2,2.5,0.8c0.4-0.4,0.6-0.9,0.6-1.4l0,0v-0.2l0,0c0-0.2,0-0.4-0.1-0.6c-0.7-2.3-1.3-4.6-1.6-7
					c-0.3-2.4-0.5-4.9-0.5-7.3c0-2.3,0.2-4.6,0.5-6.9c0.3-2.2,0.8-4.4,1.4-6.6c0.4-0.8,0.1-1.9-0.8-2.3c-0.8-0.4-1.9-0.1-2.3,0.8
					C102.7,57.6,102.6,57.6,102.6,57.7z"/>
				<path class="st0" d="M99.8,49.5c-0.8-0.5-1.9-0.2-2.4,0.6c-2,3.4-3.5,7-4.5,10.8c-3.1,11.5-1.5,23.8,4.5,34.1
					c0.5,0.8,1.6,1,2.4,0.6c0.6-0.6,0.8-1.5,0.5-2.2c-1.4-3.2-2.4-6.6-3.2-10c-1.4-7.1-1.4-14.5,0-21.6c0.7-3.4,1.8-6.8,3.2-10
					C100.6,51,100.4,50.1,99.8,49.5z"/>
				<path class="st0" d="M53,57.7c1,2.3,1.8,4.8,2.3,7.3c0.5,2.5,0.8,5,0.8,7.6c0,2.7-0.3,5.4-0.9,8.1c-0.6,2.6-1.5,5.2-2.6,7.7
					c-0.5,0.9-1.6,1.2-2.5,0.8c-0.4-0.3-0.6-0.9-0.6-1.4l0,0v-0.2l0,0c0-0.2,0-0.4,0.1-0.6c0.7-2.3,1.2-4.6,1.6-7
					c0.4-2.4,0.6-4.9,0.6-7.3c0-2.3-0.2-4.6-0.5-6.9c-0.3-2.2-0.7-4.5-1.4-6.6c-0.4-0.8-0.1-1.9,0.7-2.3s1.9-0.1,2.3,0.7
					C52.9,57.5,53,57.6,53,57.7z"/>
				<path class="st0" d="M55.8,49.5c0.8-0.5,1.9-0.2,2.4,0.6c1.9,3.4,3.4,7.1,4.5,10.8c1,3.8,1.5,7.7,1.5,11.6
					c0,3.9-0.5,7.8-1.5,11.6c-1,3.8-2.5,7.4-4.5,10.8c-0.5,0.8-1.6,1-2.4,0.6c-0.6-0.6-0.8-1.5-0.5-2.2c1.4-3.2,2.4-6.6,3.1-10.1
					c0.7-3.6,1.1-7.2,1.1-10.8c0-3.6-0.4-7.2-1.1-10.8c-0.7-3.4-1.7-6.8-3.1-10C55,51,55.2,50,55.8,49.5z"/>
			</g>
		</g>
	</g>
</g>
</svg>
