<svg xmlns="http://www.w3.org/2000/svg" viewBox="0 0 390.97 389.56"><defs><style>.cls-1{fill:#231f20;}</style></defs><title>TwitterIcon</title><g id="Layer_2" data-name="Layer 2"><g id="Layer_1-2" data-name="Layer 1"><g id="layer1"><g id="g4374"><g id="text4331"><path id="path4381" class="cls-1" d="M27.52,0H364.43A26.54,26.54,0,0,1,391,26.54V362a27.52,27.52,0,0,1-27.52,27.52H27.52A27.52,27.52,0,0,1,0,362V27.52A27.52,27.52,0,0,1,27.52,0ZM192.87,145.54v12.67a1,1,0,0,1-1,1H191q-45.9,0-94.5-47.55a1,1,0,0,0-1.54.21A33.16,33.16,0,0,0,90.39,128v10.46q0,15.21,17.5,32.91a1,1,0,0,1-.7,1.66h-1.28q-.88,0-16.07-4.83a1,1,0,0,0-1.28.93v.48q0,26.52,32.88,43.1a1,1,0,0,0,.45.11h2.21a1,1,0,0,1,1,1h0a1,1,0,0,1-.83,1l-10.95,1.65a1,1,0,0,1-.6-.1l-2.1-1.12a.91.91,0,0,0-1.24.46,1.38,1.38,0,0,1-.17.27,1,1,0,0,1-1.6-.35,1.6,1.6,0,0,0-1.68-.93v1.58a1,1,0,0,0,.11.45q15,29.53,41,30.88a1,1,0,0,1,.57,1.73q-22.63,18.8-63.29,19a1,1,0,0,0-1,1v.24a1,1,0,0,0,.56.89q35,17,58.56,17h21q73.91,0,116.35-86.55a1,1,0,0,0,.07-.2q6.82-26.53,6.82-39.69V149.39a1,1,0,0,1,.32-.73q22.27-20.2,22.27-24h-1.41a1,1,0,0,0-.36.07q-10.77,4.39-18.29,5a1,1,0,0,1-.8-1.66q13.48-13.9,15.32-20.62a1,1,0,0,0-1.36-1.16q-19.6,9.2-28.7,9.66a1,1,0,0,1-1-.78q-1.43-6-24-13a1,1,0,0,0-.3,0H234.63q-32.87,0-41.77,43.44Z"/></g></g></g></g></g></svg>